<svg width="1173" height="292" viewBox="0 0 1173 292" fill="none" xmlns="http://www.w3.org/2000/svg">
<path d="M59.2468 34.4034L0 68.681V145.601V222.459L59.3726 256.799C92.0779 275.731 119.123 291.203 119.5 291.203C119.877 291.203 146.922 275.731 179.627 256.799L239 222.459V145.538V68.681L179.69 34.3405C147.048 15.4721 119.94 0 119.437 0C118.934 0.0628967 91.8892 15.4721 59.2468 34.4034ZM133.4 67.2974C177.426 76.2913 204.282 119.5 192.709 162.897C190.823 170.13 184.911 182.395 180.445 188.244C160.57 214.534 127.362 225.289 95.6 215.666C89.6879 213.905 78.3668 208.119 73.2724 204.282C57.1713 192.143 46.2905 174.156 43.02 154.407C41.0703 142.268 42.7055 126.733 47.1711 115.097C55.3474 94.0276 73.2724 76.8574 94.5308 69.8761C106.669 65.8508 121.45 64.9074 133.4 67.2974Z" fill="#119ABE"/>
<path d="M108.178 77.3605C103.146 78.1781 94.6557 80.9455 89.6241 83.5242C72.328 92.2036 59.6862 107.802 55.032 126.104C47.4846 155.664 60.8812 186.231 87.6115 200.634C109.562 212.458 136.544 210.823 156.921 196.357C177.928 181.451 188.18 156.105 183.589 130.318C182.079 121.89 177.488 110.946 172.456 104.091C163.966 92.3294 150.632 83.0839 136.166 78.87C131.449 77.5492 128.933 77.2347 121.071 77.046C115.914 76.9202 110.065 77.046 108.178 77.3605ZM128.619 81.3857C142.141 87.5494 146.921 104.531 138.556 116.858C135.852 120.884 132.707 123.399 128.053 125.475L124.531 127.047V143.714C124.531 152.897 124.719 160.382 125.034 160.382C125.285 160.382 128.116 157.74 131.26 154.532L137.047 148.746L135.537 144.343C132.455 135.475 134.216 127.11 140.443 120.255C145.349 114.972 151.198 112.456 158.431 112.519C166.104 112.582 172.708 115.978 177.488 122.33C180.759 126.67 182.016 130.695 181.954 136.859C181.954 141.262 181.639 142.582 180.067 145.979C177.362 151.639 173.714 155.539 168.683 157.992C164.783 159.941 164.029 160.067 158.179 160.067C152.959 160.067 151.387 159.815 148.745 158.62L145.6 157.174L135.097 167.803L124.531 178.369V192.332V206.358L118.744 206.169L112.895 205.98L112.706 191.829L112.581 177.615L102.329 167.426L92.077 157.174L88.9951 158.62C86.4165 159.815 84.7183 160.067 79.5609 160.067C73.7117 160.067 72.957 159.941 69.0575 157.992C64.1517 155.602 60.0007 151.325 57.422 146.042C55.9125 142.897 55.7238 141.702 55.6609 136.482C55.6609 131.324 55.9125 130.003 57.3591 126.922C61.5102 117.99 70.1267 112.393 79.6238 112.456C85.9133 112.519 91.1965 114.594 95.9765 118.997C103.272 125.727 105.536 135.853 101.826 145.538L100.442 149.186L106.48 155.224L112.581 161.325V143.966V126.67L109.121 125.223C101.008 121.89 95.5991 114.091 95.0959 105.034C94.9701 102.267 95.1588 98.7447 95.5991 96.9207C97.2344 89.9394 103.524 83.1468 110.82 80.5052C115.788 78.6813 123.587 79.0586 128.619 81.3857Z" fill="#24C191"/>
<path d="M1090.98 215V204.581L1154.89 109.189H1090.29V96.4546H1172.02V106.874L1108.12 202.266H1172.71V215H1090.98Z" fill="white"/>
<path d="M997.501 215V96.4546H1069.05V109.189H1011.86V149.244H1065.34V161.979H1011.86V202.266H1069.97V215H997.501Z" fill="white"/>
<path d="M900.083 215V96.4546H971.627V109.189H914.438V149.244H967.922V161.979H914.438V202.266H972.553V215H900.083Z" fill="white"/>
<path d="M789.019 109.189V96.4546H877.928V109.189H840.651V215H826.296V109.189H789.019Z" fill="white"/>
<path d="M691.239 215V96.4546H731.295C740.556 96.4546 748.158 98.0367 754.101 101.201C760.043 104.327 764.443 108.629 767.298 114.109C770.154 119.589 771.582 125.821 771.582 132.805C771.582 139.79 770.154 145.984 767.298 151.386C764.443 156.789 760.063 161.033 754.159 164.12C748.255 167.169 740.71 168.693 731.526 168.693H699.111V155.727H731.063C737.392 155.727 742.485 154.801 746.344 152.949C750.242 151.097 753.059 148.473 754.795 145.077C756.57 141.642 757.458 137.552 757.458 132.805C757.458 128.059 756.57 123.911 754.795 120.36C753.02 116.81 750.184 114.07 746.286 112.141C742.389 110.173 737.237 109.189 730.832 109.189H705.594V215H691.239ZM747.039 161.747L776.212 215H759.542L730.832 161.747H747.039Z" fill="white"/>
<path d="M593.821 215V96.4546H665.365V109.189H608.176V149.244H661.661V161.979H608.176V202.266H666.291V215H593.821Z" fill="white"/>
<path d="M490.354 215V96.4546H530.41C539.71 96.4546 547.312 98.1332 553.216 101.49C559.159 104.809 563.558 109.305 566.413 114.977C569.269 120.65 570.697 126.979 570.697 133.963C570.697 140.948 569.269 147.296 566.413 153.007C563.596 158.718 559.236 163.271 553.332 166.667C547.428 170.025 539.864 171.703 530.641 171.703H501.931V158.969H530.178C536.546 158.969 541.659 157.869 545.518 155.669C549.376 153.47 552.174 150.499 553.911 146.755C555.686 142.974 556.573 138.71 556.573 133.963C556.573 129.217 555.686 124.972 553.911 121.229C552.174 117.486 549.357 114.553 545.46 112.43C541.562 110.269 536.391 109.189 529.947 109.189H504.71V215H490.354Z" fill="white"/>
<path d="M392.719 96.4546L423.282 145.771H424.208L454.771 96.4546H471.672L434.396 155.727L471.672 215H454.771L424.208 166.609H423.282L392.719 215H375.817L414.021 155.727L375.817 96.4546H392.719Z" fill="white"/>
<path d="M288.355 215V96.4546H359.899V109.189H302.711V149.244H356.195V161.979H302.711V202.266H360.826V215H288.355Z" fill="white"/>
</svg>
